<?xml version="1.0" encoding="utf-8"?>
<!-- Generator: Adobe Illustrator 23.0.1, SVG Export Plug-In . SVG Version: 6.00 Build 0)  -->
<svg version="1.1" id="Layer_1" xmlns="http://www.w3.org/2000/svg" xmlns:xlink="http://www.w3.org/1999/xlink" x="0px" y="0px"
	 viewBox="0 0 312 306.7" style="enable-background:new 0 0 312 306.7;" xml:space="preserve">
<style type="text/css">
	.st0{fill:none;stroke:#FFFFFF;stroke-width:4.252;stroke-linecap:round;stroke-linejoin:round;stroke-miterlimit:10;}
	.st1{fill:#FFFFFF;}
</style>
<polygon class="st0" points="190.4,280.4 189.9,285.1 123,285.1 122.5,280.4 5.6,280.4 5.6,302.4 307.3,302.4 307.3,280.4 "/>
<g id="Expanded_1_">
	<g>
		<g>
			<path class="st1" d="M195.1,123.6h-77.4c-4.3,0-7.7-3.5-7.7-7.7V69.4c0-4.3,3.5-7.7,7.7-7.7h77.4c4.3,0,7.7,3.5,7.7,7.7v46.4
				C202.9,120.2,199.4,123.6,195.1,123.6z M117.7,65.6c-2.1,0-3.9,1.7-3.9,3.9v46.4c0,2.1,1.7,3.9,3.9,3.9h77.4
				c2.1,0,3.9-1.7,3.9-3.9V69.4c0-2.1-1.7-3.9-3.9-3.9H117.7z"/>
		</g>
		<g>
			<path class="st1" d="M156.4,102.7l-33.9-22c-0.9-0.6-1.2-1.8-0.6-2.7c0.6-0.9,1.8-1.2,2.7-0.6l31.9,20.6l31.9-20.6
				c0.9-0.6,2.1-0.3,2.7,0.6c0.6,0.9,0.3,2.1-0.6,2.7L156.4,102.7z"/>
		</g>
		<g>
			<path class="st1" d="M121.6,112c-0.6,0-1.2-0.3-1.6-0.9c-0.6-0.9-0.3-2.1,0.5-2.7L138,96.9c0.9-0.6,2.1-0.3,2.7,0.5
				s0.4,2.1-0.5,2.7l-17.4,11.6C122.3,111.9,122,112,121.6,112z"/>
		</g>
		<g>
			<path class="st1" d="M191.3,112c-0.4,0-0.7-0.1-1.1-0.3l-17.4-11.6c-0.9-0.6-1.1-1.8-0.5-2.7c0.6-0.9,1.8-1.1,2.7-0.5l17.4,11.6
				c0.9,0.6,1.1,1.8,0.5,2.7C192.5,111.7,191.9,112,191.3,112z"/>
		</g>
	</g>
</g>
<polyline class="st0" points="222.2,107 281.4,107 281.4,271.8 31.5,271.8 31.5,107 90.7,107 "/>
<polyline class="st0" points="90.7,96.8 20.4,96.8 20.4,272 292.5,272 292.5,96.8 222.2,96.8 "/>
<line class="st0" x1="136.4" y1="188.3" x2="136.4" y2="137.9"/>
<line class="st0" x1="151.8" y1="215.8" x2="151.8" y2="165.4"/>
<line class="st0" x1="169.3" y1="201.3" x2="169.3" y2="160.9"/>
<line class="st0" x1="96.4" y1="67.7" x2="96.4" y2="37.3"/>
<line class="st0" x1="132.3" y1="36.6" x2="132.3" y2="6.2"/>
<line class="st0" x1="213.4" y1="68.8" x2="213.4" y2="18.5"/>
<line class="st0" x1="165.4" y1="45.7" x2="165.4" y2="25.4"/>
<line class="st0" x1="96.4" y1="24.7" x2="96.4" y2="15.3"/>
<line class="st0" x1="169.3" y1="150.3" x2="169.3" y2="142.9"/>
</svg>
