<?xml version="1.0" encoding="utf-8"?>
<!-- Generator: Adobe Illustrator 23.0.1, SVG Export Plug-In . SVG Version: 6.00 Build 0)  -->
<svg version="1.1" id="Layer_1" xmlns="http://www.w3.org/2000/svg" xmlns:xlink="http://www.w3.org/1999/xlink" x="0px" y="0px"
	 viewBox="0 0 354.7 306.7" style="enable-background:new 0 0 354.7 306.7;" xml:space="preserve">
<style type="text/css">
	.st0{fill:none;stroke:#FFFFFF;stroke-width:5.6693;stroke-linecap:round;stroke-linejoin:round;stroke-miterlimit:10;}
	.st1{fill:none;stroke:#FFFFFF;stroke-width:4.252;stroke-linecap:round;stroke-linejoin:round;stroke-miterlimit:10;}
	.st2{fill:none;stroke:#FFFFFF;stroke-width:2.8346;stroke-linecap:round;stroke-linejoin:round;stroke-miterlimit:10;}
	.st3{fill:#FFFFFF;}
</style>
<circle class="st0" cx="102.6" cy="260.8" r="31"/>
<circle class="st1" cx="102.6" cy="260.8" r="14.3"/>
<path class="st1" d="M241.4,87.9h36.5c10.6,0,19.6,8,20.8,18.5l7.2,63.2l9.5,9.5c6.6,6.6,10.3,15.6,10.3,24.9v54.8h-19.8"/>
<line class="st2" x1="58.2" y1="187" x2="61.7" y2="210"/>
<line class="st2" x1="51.5" y1="143" x2="55.8" y2="171.5"/>
<path class="st1" d="M135.1,260.5H224V57.9H71.1c-17.2,0-30.3,15.3-27.7,32.2l5.8,38"/>
<line class="st1" x1="240.7" y1="169.6" x2="305.3" y2="169.6"/>
<line class="st0" x1="286.5" y1="145.4" x2="274.4" y2="168.2"/>
<line class="st0" x1="28.9" y1="129.6" x2="63.6" y2="129.6"/>
<line class="st0" x1="8.1" y1="152" x2="19.7" y2="152"/>
<line class="st0" x1="22.6" y1="189.8" x2="34.1" y2="189.8"/>
<line class="st0" x1="38.2" y1="171.9" x2="75.3" y2="171.9"/>
<line class="st0" x1="38.2" y1="209.5" x2="84.6" y2="209.5"/>
<circle class="st1" cx="102.6" cy="260.8" r="7.4"/>
<circle class="st0" cx="274.2" cy="260.8" r="31"/>
<circle class="st1" cx="274.2" cy="260.8" r="14.3"/>
<circle class="st1" cx="274.2" cy="260.8" r="7.4"/>
<g>
	<g>
		<g>
			<path class="st3" d="M159.5,183.4c-3.3,0-6.2-0.5-8.7-1.5s-4.5-2.4-6-4.2c-1.6-1.8-2.7-3.9-3.5-6.4c-0.8-2.4-1.1-5.1-1.1-7.9V129
				l7.1-4.5v38.1c0,5.1,1.1,8.8,3.4,11.1s5.2,3.5,8.8,3.5c1.8,0,3.5-0.3,5-0.9c1.5-0.6,2.8-1.4,3.9-2.6c1.1-1.2,1.9-2.7,2.5-4.5
				c0.6-1.8,0.9-4,0.9-6.6v-25.8l0,0c4.3,1.8,7.1,6.1,7.1,10.8v15.9c0,2.8-0.4,5.5-1.1,7.9s-1.9,4.6-3.5,6.4s-3.6,3.2-6,4.2
				C165.7,182.9,162.8,183.4,159.5,183.4z"/>
		</g>
	</g>
	<path class="st3" d="M161.2,129.8v32.7c0,2.6-0.3,4.7-0.9,6.6c-0.6,1.8-1.4,3.4-2.5,4.5c-1.1,1.2-2.4,2.1-3.9,2.6
		c-1.5,0.6-3.1,0.9-5,0.9c-3.6,0-6.6-1.1-8.8-3.5c-2.3-2.3-3.4-6-3.4-11.1v-8.4l-7.1,4.6v4.7c0,2.8,0.4,5.5,1.1,7.9s1.9,4.6,3.5,6.4
		s3.6,3.2,6,4.2s5.3,1.5,8.7,1.5c3.3,0,6.2-0.5,8.6-1.5c2.4-1,4.4-2.4,6-4.2s2.8-3.9,3.5-6.4s1.1-5.1,1.1-7.9v-29L161.2,129.8z"/>
	<g>
		<g>
			<path class="st3" d="M138.5,183.4c-3.3,0-6.2-0.5-8.7-1.5s-4.5-2.4-6-4.2s-2.7-3.9-3.5-6.4c-0.8-2.4-1.1-5.1-1.1-7.9v-15.9
				c0-4.7,2.8-8.9,7.1-10.8l0,0v25.8c0,5.1,1.1,8.8,3.4,11.1c2.3,2.3,5.2,3.5,8.8,3.5c1.8,0,3.5-0.3,5-0.9c1.5-0.6,2.8-1.4,3.9-2.6
				c1.1-1.2,1.9-2.7,2.5-4.5c0.6-1.8,0.9-4,0.9-6.6v-38.1l7.1,4.5v34.4c0,2.8-0.4,5.5-1.1,7.9s-1.9,4.6-3.5,6.4s-3.6,3.2-6,4.2
				C144.7,182.9,141.8,183.4,138.5,183.4z"/>
		</g>
	</g>
</g>
</svg>
