<?xml version="1.0" encoding="utf-8"?>
<!-- Generator: Adobe Illustrator 23.0.1, SVG Export Plug-In . SVG Version: 6.00 Build 0)  -->
<svg version="1.1" id="Layer_1" xmlns="http://www.w3.org/2000/svg" xmlns:xlink="http://www.w3.org/1999/xlink" x="0px" y="0px"
	 viewBox="0 0 312 306.67" style="enable-background:new 0 0 312 306.67;" xml:space="preserve">
<style type="text/css">
	.st0{fill:none;stroke:#454D66;stroke-width:2.8346;stroke-linecap:round;stroke-linejoin:round;stroke-miterlimit:10;}
	.st1{fill:#454D66;}
</style>
<polygon class="st0" points="190.36,280.44 189.89,285.15 123,285.15 122.53,280.44 5.63,280.44 5.63,302.37 307.26,302.37 
	307.26,280.44 "/>
<g id="Expanded_1_">
	<g>
		<g>
			<path class="st1" d="M195.15,123.63h-77.41c-4.27,0-7.74-3.47-7.74-7.74V69.44c0-4.27,3.47-7.74,7.74-7.74h77.41
				c4.27,0,7.74,3.47,7.74,7.74v46.44C202.89,120.16,199.42,123.63,195.15,123.63z M117.74,65.57c-2.13,0-3.87,1.74-3.87,3.87v46.44
				c0,2.13,1.74,3.87,3.87,3.87h77.41c2.13,0,3.87-1.74,3.87-3.87V69.44c0-2.13-1.74-3.87-3.87-3.87H117.74z"/>
		</g>
		<g>
			<path class="st1" d="M156.44,102.71L122.5,80.75c-0.9-0.58-1.16-1.78-0.57-2.68c0.58-0.9,1.78-1.15,2.68-0.57l31.85,20.61
				l31.85-20.61c0.9-0.58,2.1-0.32,2.68,0.57c0.58,0.9,0.32,2.09-0.57,2.68L156.44,102.71z"/>
		</g>
		<g>
			<path class="st1" d="M121.61,112.02c-0.63,0-1.24-0.3-1.61-0.86c-0.59-0.89-0.35-2.09,0.54-2.68l17.42-11.61
				c0.89-0.59,2.09-0.35,2.68,0.54c0.59,0.89,0.35,2.09-0.54,2.68l-17.42,11.61C122.35,111.91,121.98,112.02,121.61,112.02z"/>
		</g>
		<g>
			<path class="st1" d="M191.28,112.02c-0.37,0-0.74-0.11-1.07-0.33l-17.42-11.61c-0.89-0.59-1.13-1.79-0.54-2.68
				c0.59-0.89,1.79-1.13,2.68-0.54l17.42,11.61c0.89,0.59,1.13,1.79,0.54,2.68C192.52,111.72,191.9,112.02,191.28,112.02z"/>
		</g>
	</g>
</g>
<polyline class="st0" points="222.22,107.04 281.38,107.04 281.38,271.76 31.51,271.76 31.51,107.04 90.67,107.04 "/>
<polyline class="st0" points="90.67,96.75 20.4,96.75 20.4,272.05 292.49,272.05 292.49,96.75 222.22,96.75 "/>
<line class="st0" x1="136.41" y1="188.3" x2="136.41" y2="137.93"/>
<line class="st0" x1="151.81" y1="215.81" x2="151.81" y2="165.44"/>
<line class="st0" x1="169.3" y1="201.3" x2="169.3" y2="160.93"/>
<line class="st0" x1="96.41" y1="67.67" x2="96.41" y2="37.3"/>
<line class="st0" x1="132.26" y1="36.56" x2="132.26" y2="6.19"/>
<line class="st0" x1="213.44" y1="68.85" x2="213.44" y2="18.48"/>
<line class="st0" x1="165.44" y1="45.74" x2="165.44" y2="25.37"/>
<line class="st0" x1="96.41" y1="24.67" x2="96.41" y2="15.3"/>
<line class="st0" x1="169.3" y1="150.3" x2="169.3" y2="142.93"/>
</svg>
