<?xml version="1.0" encoding="utf-8"?>
<!-- Generator: Adobe Illustrator 23.0.1, SVG Export Plug-In . SVG Version: 6.00 Build 0)  -->
<svg version="1.1" id="Layer_1" xmlns="http://www.w3.org/2000/svg" xmlns:xlink="http://www.w3.org/1999/xlink" x="0px" y="0px"
	 viewBox="0 0 354.67 306.67" style="enable-background:new 0 0 354.67 306.67;" xml:space="preserve">
<style type="text/css">
	
		.st0{fill-rule:evenodd;clip-rule:evenodd;fill:none;stroke:#454D66;stroke-width:5.6693;stroke-linecap:round;stroke-linejoin:round;stroke-miterlimit:10;}
	
		.st1{fill-rule:evenodd;clip-rule:evenodd;fill:none;stroke:#454D66;stroke-width:4.252;stroke-linecap:round;stroke-linejoin:round;stroke-miterlimit:10;}
	
		.st2{fill-rule:evenodd;clip-rule:evenodd;fill:none;stroke:#454D66;stroke-width:2.8346;stroke-linecap:round;stroke-linejoin:round;stroke-miterlimit:10;}
	.st3{fill:#454D66;}
</style>
<circle class="st0" cx="102.6" cy="260.77" r="30.97"/>
<circle class="st1" cx="102.6" cy="260.77" r="14.25"/>
<path class="st1" d="M241.36,87.93h36.48c10.63,0,19.56,7.98,20.76,18.53l7.19,63.24l9.51,9.51c6.6,6.6,10.31,15.55,10.31,24.89
	v54.8h-19.82"/>
<line class="st2" x1="58.2" y1="187.02" x2="61.71" y2="209.97"/>
<line class="st2" x1="51.48" y1="143.02" x2="55.84" y2="171.51"/>
<path class="st1" d="M135.12,260.46h88.89V57.89H71.1c-17.16,0-30.28,15.28-27.69,32.24l5.8,37.99"/>
<line class="st1" x1="240.74" y1="169.55" x2="305.32" y2="169.55"/>
<line class="st0" x1="286.5" y1="145.39" x2="274.42" y2="168.16"/>
<line class="st0" x1="28.88" y1="129.59" x2="63.57" y2="129.59"/>
<line class="st0" x1="8.15" y1="152.01" x2="19.7" y2="152.01"/>
<line class="st0" x1="22.56" y1="189.76" x2="34.11" y2="189.76"/>
<line class="st0" x1="38.17" y1="171.87" x2="75.34" y2="171.87"/>
<line class="st0" x1="38.17" y1="209.51" x2="84.63" y2="209.51"/>
<circle class="st1" cx="102.6" cy="260.77" r="7.43"/>
<circle class="st0" cx="274.19" cy="260.77" r="30.97"/>
<circle class="st1" cx="274.19" cy="260.77" r="14.25"/>
<circle class="st1" cx="274.19" cy="260.77" r="7.43"/>
<g>
	<g>
		<g>
			<path class="st3" d="M159.47,183.4c-3.34,0-6.23-0.51-8.68-1.54c-2.45-1.03-4.46-2.44-6.03-4.23c-1.57-1.79-2.73-3.91-3.49-6.36
				c-0.76-2.45-1.14-5.1-1.14-7.94v-34.37l7.13-4.53v38.1c0,5.1,1.13,8.8,3.38,11.11c2.25,2.31,5.2,3.46,8.83,3.46
				c1.81,0,3.47-0.28,4.96-0.85c1.5-0.56,2.78-1.43,3.86-2.61c1.08-1.18,1.91-2.68,2.5-4.52c0.59-1.84,0.88-4.03,0.88-6.58v-25.8
				l0,0c4.32,1.82,7.13,6.06,7.13,10.75v15.85c0,2.84-0.38,5.49-1.14,7.94c-0.76,2.45-1.94,4.57-3.53,6.36
				c-1.59,1.79-3.6,3.2-6.03,4.23C165.68,182.88,162.8,183.4,159.47,183.4z"/>
		</g>
	</g>
	<path class="st3" d="M161.19,129.8v32.71c0,2.55-0.29,4.74-0.88,6.58c-0.59,1.84-1.42,3.35-2.5,4.52
		c-1.08,1.18-2.37,2.05-3.86,2.61c-1.5,0.56-3.15,0.85-4.96,0.85c-3.63,0-6.57-1.15-8.83-3.46c-2.26-2.3-3.38-6.01-3.38-11.11v-8.42
		l-7.13,4.56v4.67c0,2.84,0.38,5.49,1.14,7.94c0.76,2.45,1.92,4.57,3.49,6.36c1.57,1.79,3.58,3.2,6.03,4.23
		c2.45,1.03,5.34,1.54,8.68,1.54c3.33,0,6.22-0.51,8.64-1.54c2.43-1.03,4.44-2.44,6.03-4.23c1.59-1.79,2.77-3.91,3.53-6.36
		c0.76-2.45,1.14-5.1,1.14-7.94v-28.98L161.19,129.8z"/>
	<g>
		<g>
			<path class="st3" d="M138.5,183.4c-3.34,0-6.23-0.51-8.68-1.54c-2.45-1.03-4.46-2.44-6.03-4.23c-1.57-1.79-2.73-3.91-3.49-6.36
				c-0.76-2.45-1.14-5.1-1.14-7.94v-15.85c0-4.69,2.81-8.93,7.13-10.75h0v25.8c0,5.1,1.13,8.8,3.38,11.11
				c2.25,2.31,5.2,3.46,8.83,3.46c1.81,0,3.47-0.28,4.96-0.85c1.5-0.56,2.78-1.43,3.86-2.61c1.08-1.18,1.91-2.68,2.5-4.52
				c0.59-1.84,0.88-4.03,0.88-6.58v-38.1l7.13,4.53v34.37c0,2.84-0.38,5.49-1.14,7.94c-0.76,2.45-1.94,4.57-3.53,6.36
				c-1.59,1.79-3.6,3.2-6.03,4.23C144.72,182.88,141.83,183.4,138.5,183.4z"/>
		</g>
	</g>
</g>
</svg>
