<?xml version="1.0" encoding="utf-8"?>
<!-- Generator: Adobe Illustrator 23.0.1, SVG Export Plug-In . SVG Version: 6.00 Build 0)  -->
<svg version="1.1" id="Layer_1" xmlns="http://www.w3.org/2000/svg" xmlns:xlink="http://www.w3.org/1999/xlink" x="0px" y="0px"
	 viewBox="0 0 312 306.67" style="enable-background:new 0 0 312 306.67;" xml:space="preserve">
<style type="text/css">
	.st0{fill:none;stroke:#454D66;stroke-width:5.6693;stroke-linecap:round;stroke-linejoin:round;stroke-miterlimit:10;}
	.st1{fill:none;stroke:#454D66;stroke-width:4.252;stroke-linecap:round;stroke-linejoin:round;stroke-miterlimit:10;}
</style>
<g>
	<line class="st0" x1="156" y1="167.88" x2="112.94" y2="110.22"/>
	<line class="st0" x1="156" y1="167.88" x2="116.66" y2="193.96"/>
	<path class="st1" d="M237.29,254.63c23.14-21.69,37.6-52.53,37.6-86.75c0-65.66-53.23-118.89-118.89-118.89
		S37.11,102.22,37.11,167.88c0,34.19,14.44,65.01,37.55,86.7l-27.09,27.15c-2.61,2.61-2.16,6.95,0.92,8.97
		c2.3,1.51,5.35,1.2,7.3-0.75l27.83-27.75c20.05,15.41,45.15,24.58,72.39,24.58c27.32,0,52.48-9.22,72.56-24.71l28.17,28.08
		c1.99,1.99,5.13,2.23,7.4,0.57c2.82-2.07,3.13-6.16,0.66-8.63L237.29,254.63z"/>
	<path class="st1" d="M279.54,97.63c3.91-6.86,6.17-14.76,6.17-23.22c0-25.98-21.06-47.03-47.03-47.03
		c-8.46,0-16.36,2.26-23.22,6.17L279.54,97.63z"/>
	<path class="st1" d="M32.46,97.63c-3.91-6.86-6.17-14.76-6.17-23.22c0-25.98,21.06-47.03,47.03-47.03c8.46,0,16.36,2.26,23.22,6.17
		L32.46,97.63z"/>
	<circle class="st1" cx="156" cy="167.88" r="104.88"/>
	<circle class="st1" cx="156" cy="167.88" r="13.7"/>
</g>
</svg>
