<?xml version="1.0" encoding="utf-8"?>
<!-- Generator: Adobe Illustrator 23.0.1, SVG Export Plug-In . SVG Version: 6.00 Build 0)  -->
<svg version="1.1" id="Layer_1" xmlns="http://www.w3.org/2000/svg" xmlns:xlink="http://www.w3.org/1999/xlink" x="0px" y="0px"
	 viewBox="0 0 312 306.7" style="enable-background:new 0 0 312 306.7;" xml:space="preserve">
<style type="text/css">
	.st0{fill:none;stroke:#FFFFFF;stroke-width:4.252;stroke-linecap:round;stroke-linejoin:round;stroke-miterlimit:10;}
	.st1{fill:none;stroke:#4B9F48;stroke-width:7.0866;stroke-linecap:round;stroke-linejoin:round;stroke-miterlimit:10;}
</style>
<circle class="st0" cx="53" cy="39.7" r="12"/>
<circle class="st0" cx="156" cy="39.7" r="12"/>
<circle class="st0" cx="259" cy="39.7" r="12"/>
<polyline class="st1" points="151.6,36.1 157.9,44.3 177,28.9 "/>
<path class="st0" d="M86.9,296.8H19.1c-6.6,0-12-5.4-12-12V90.1c0-6.6,5.4-12,12-12h67.8c6.6,0,12,5.4,12,12v194.7
	C98.9,291.4,93.5,296.8,86.9,296.8z"/>
<path class="st0" d="M189.9,296.8h-67.8c-6.6,0-12-5.4-12-12V90.1c0-6.6,5.4-12,12-12h67.8c6.6,0,12,5.4,12,12v194.7
	C201.9,291.4,196.5,296.8,189.9,296.8z"/>
<path class="st0" d="M292.9,296.8h-67.8c-6.6,0-12-5.4-12-12V90.1c0-6.6,5.4-12,12-12h67.8c6.6,0,12,5.4,12,12v194.7
	C304.9,291.4,299.5,296.8,292.9,296.8z"/>
<line class="st0" x1="20.8" y1="147.1" x2="83.3" y2="147.1"/>
<line class="st0" x1="20.8" y1="158.9" x2="83.3" y2="158.9"/>
<line class="st0" x1="20.8" y1="170.8" x2="83.3" y2="170.8"/>
<line class="st0" x1="20.8" y1="237.1" x2="83.3" y2="237.1"/>
<line class="st0" x1="20.8" y1="249" x2="83.3" y2="249"/>
<line class="st0" x1="123.4" y1="147.1" x2="185.9" y2="147.1"/>
<line class="st0" x1="123.4" y1="158.9" x2="185.9" y2="158.9"/>
<line class="st0" x1="123.4" y1="223.5" x2="185.9" y2="223.5"/>
<line class="st0" x1="123.4" y1="236.3" x2="185.9" y2="236.3"/>
<line class="st0" x1="123.4" y1="249" x2="185.9" y2="249"/>
<line class="st0" x1="226.1" y1="147.1" x2="288.5" y2="147.1"/>
<line class="st0" x1="226.1" y1="194.5" x2="288.5" y2="194.5"/>
<line class="st0" x1="226.1" y1="207.8" x2="288.5" y2="207.8"/>
<line class="st0" x1="226.1" y1="221.1" x2="288.5" y2="221.1"/>
<line class="st0" x1="226.1" y1="260.9" x2="288.5" y2="260.9"/>
</svg>
