<?xml version="1.0" encoding="utf-8"?>
<!-- Generator: Adobe Illustrator 23.0.1, SVG Export Plug-In . SVG Version: 6.00 Build 0)  -->
<svg version="1.1" id="Layer_1" xmlns="http://www.w3.org/2000/svg" xmlns:xlink="http://www.w3.org/1999/xlink" x="0px" y="0px"
	 viewBox="0 0 312 306.7" style="enable-background:new 0 0 312 306.7;" xml:space="preserve">
<style type="text/css">
	.st0{fill:none;stroke:#FFFFFF;stroke-width:5.6693;stroke-linecap:round;stroke-linejoin:round;stroke-miterlimit:10;}
	.st1{fill:none;stroke:#FFFFFF;stroke-width:4.252;stroke-linecap:round;stroke-linejoin:round;stroke-miterlimit:10;}
</style>
<g>
	<line class="st0" x1="156" y1="167.9" x2="112.9" y2="110.2"/>
	<line class="st0" x1="156" y1="167.9" x2="116.7" y2="194"/>
	<path class="st1" d="M237.3,254.6c23.1-21.7,37.6-52.5,37.6-86.8C274.9,102.2,221.7,49,156,49S37.1,102.2,37.1,167.9
		c0,34.2,14.4,65,37.6,86.7l-27.1,27.2c-2.6,2.6-2.2,7,0.9,9c2.3,1.5,5.3,1.2,7.3-0.8l27.8-27.8c20,15.4,45.2,24.6,72.4,24.6
		c27.3,0,52.5-9.2,72.6-24.7l28.2,28.1c2,2,5.1,2.2,7.4,0.6c2.8-2.1,3.1-6.2,0.7-8.6L237.3,254.6z"/>
	<path class="st1" d="M279.5,97.6c3.9-6.9,6.2-14.8,6.2-23.2c0-26-21.1-47-47-47c-8.5,0-16.4,2.3-23.2,6.2L279.5,97.6z"/>
	<path class="st1" d="M32.5,97.6c-3.9-6.9-6.2-14.8-6.2-23.2c0-26,21.1-47,47-47c8.5,0,16.4,2.3,23.2,6.2L32.5,97.6z"/>
	<circle class="st1" cx="156" cy="167.9" r="104.9"/>
	<circle class="st1" cx="156" cy="167.9" r="13.7"/>
</g>
</svg>
