<?xml version="1.0" encoding="utf-8"?>
<!-- Generator: Adobe Illustrator 23.0.1, SVG Export Plug-In . SVG Version: 6.00 Build 0)  -->
<svg version="1.1" id="Layer_1" xmlns="http://www.w3.org/2000/svg" xmlns:xlink="http://www.w3.org/1999/xlink" x="0px" y="0px"
	 viewBox="0 0 312 306.67" style="enable-background:new 0 0 312 306.67;" xml:space="preserve">
<style type="text/css">
	.st0{fill:none;stroke:#454D66;stroke-width:4.252;stroke-linecap:round;stroke-linejoin:round;stroke-miterlimit:10;}
	.st1{fill:none;stroke:#4B9F48;stroke-width:7.0866;stroke-linecap:round;stroke-linejoin:round;stroke-miterlimit:10;}
</style>
<circle class="st0" cx="53.01" cy="39.67" r="12"/>
<circle class="st0" cx="156" cy="39.67" r="12"/>
<circle class="st0" cx="258.99" cy="39.67" r="12"/>
<polyline class="st1" points="151.55,36.08 157.95,44.28 177.03,28.93 "/>
<path class="st0" d="M86.91,296.78h-67.8c-6.6,0-12-5.4-12-12V90.11c0-6.6,5.4-12,12-12h67.8c6.6,0,12,5.4,12,12v194.67
	C98.91,291.38,93.51,296.78,86.91,296.78z"/>
<path class="st0" d="M189.9,296.78h-67.8c-6.6,0-12-5.4-12-12V90.11c0-6.6,5.4-12,12-12h67.8c6.6,0,12,5.4,12,12v194.67
	C201.9,291.38,196.5,296.78,189.9,296.78z"/>
<path class="st0" d="M292.89,296.78h-67.8c-6.6,0-12-5.4-12-12V90.11c0-6.6,5.4-12,12-12h67.8c6.6,0,12,5.4,12,12v194.67
	C304.89,291.38,299.49,296.78,292.89,296.78z"/>
<line class="st0" x1="20.78" y1="147.07" x2="83.26" y2="147.07"/>
<line class="st0" x1="20.78" y1="158.93" x2="83.26" y2="158.93"/>
<line class="st0" x1="20.78" y1="170.78" x2="83.26" y2="170.78"/>
<line class="st0" x1="20.78" y1="237.15" x2="83.26" y2="237.15"/>
<line class="st0" x1="20.78" y1="249" x2="83.26" y2="249"/>
<line class="st0" x1="123.42" y1="147.07" x2="185.9" y2="147.07"/>
<line class="st0" x1="123.42" y1="158.93" x2="185.9" y2="158.93"/>
<line class="st0" x1="123.42" y1="223.52" x2="185.9" y2="223.52"/>
<line class="st0" x1="123.42" y1="236.26" x2="185.9" y2="236.26"/>
<line class="st0" x1="123.42" y1="249" x2="185.9" y2="249"/>
<line class="st0" x1="226.05" y1="147.07" x2="288.54" y2="147.07"/>
<line class="st0" x1="226.05" y1="194.48" x2="288.54" y2="194.48"/>
<line class="st0" x1="226.05" y1="207.81" x2="288.54" y2="207.81"/>
<line class="st0" x1="226.05" y1="221.15" x2="288.54" y2="221.15"/>
<line class="st0" x1="226.05" y1="260.85" x2="288.54" y2="260.85"/>
</svg>
