<?xml version="1.0" encoding="utf-8"?>
<!-- Generator: Adobe Illustrator 23.0.1, SVG Export Plug-In . SVG Version: 6.00 Build 0)  -->
<svg version="1.1" id="Layer_1" xmlns="http://www.w3.org/2000/svg" xmlns:xlink="http://www.w3.org/1999/xlink" x="0px" y="0px"
	 viewBox="0 0 1121.24 158.69" style="enable-background:new 0 0 1121.24 158.69;" xml:space="preserve">
<style type="text/css">
	.st0{fill:#D9D872;}
	.st1{fill:#ED674A;}
	.st2{fill:#4B9F48;}
	.st3{fill:#454D66;}
</style>
<g>
	<g>
		<g>
			<g>
				<path class="st0" d="M108.44,158.69c-8.97,0-16.75-1.39-23.35-4.16c-6.6-2.77-12.01-6.56-16.23-11.38
					c-4.22-4.81-7.36-10.52-9.4-17.12c-2.05-6.59-3.07-13.72-3.07-21.37V12.19L75.6,0v102.49c0,13.72,3.03,23.68,9.1,29.88
					c6.07,6.2,13.98,9.3,23.74,9.3c4.88,0,9.33-0.76,13.36-2.28c4.02-1.52,7.49-3.86,10.39-7.02c2.9-3.17,5.14-7.22,6.73-12.17
					c1.58-4.95,2.37-10.85,2.37-17.71v-69.4l0,0c11.63,4.91,19.19,16.31,19.19,28.93v42.64c0,7.65-1.02,14.78-3.07,21.37
					c-2.05,6.6-5.21,12.3-9.5,17.12c-4.29,4.82-9.7,8.61-16.23,11.38C125.17,157.3,117.41,158.69,108.44,158.69z"/>
			</g>
		</g>
		<path class="st1" d="M113.09,14.5v87.99c0,6.86-0.79,12.76-2.37,17.71c-1.58,4.95-3.83,9-6.73,12.17
			c-2.9,3.17-6.37,5.51-10.39,7.02c-4.03,1.52-8.48,2.28-13.36,2.28c-9.76,0-17.68-3.1-23.74-9.3c-6.07-6.2-9.1-16.16-9.1-29.88
			V79.83L28.2,92.11v12.56c0,7.65,1.02,14.78,3.07,21.37c2.04,6.6,5.18,12.3,9.4,17.12c4.22,4.82,9.63,8.61,16.23,11.38
			c6.59,2.77,14.38,4.16,23.35,4.16c8.97,0,16.72-1.39,23.25-4.16c6.53-2.77,11.94-6.56,16.23-11.38c4.29-4.81,7.45-10.52,9.5-17.12
			c2.04-6.59,3.07-13.72,3.07-21.37V26.69L113.09,14.5z"/>
		<g>
			<g>
				<path class="st2" d="M52.04,158.69c-8.97,0-16.75-1.39-23.35-4.16c-6.6-2.77-12.01-6.56-16.23-11.38
					c-4.22-4.81-7.36-10.52-9.4-17.12C1.02,119.44,0,112.32,0,104.67V62.02C0,49.4,7.56,38,19.19,33.09l0,0v69.4
					c0,13.72,3.03,23.68,9.1,29.88c6.07,6.2,13.98,9.3,23.74,9.3c4.88,0,9.33-0.76,13.36-2.28c4.02-1.52,7.49-3.86,10.39-7.02
					c2.9-3.17,5.14-7.22,6.73-12.17c1.58-4.95,2.37-10.85,2.37-17.71V0l19.19,12.19v92.47c0,7.65-1.02,14.78-3.07,21.37
					c-2.05,6.6-5.21,12.3-9.5,17.12c-4.29,4.82-9.7,8.61-16.23,11.38C68.76,157.3,61.01,158.69,52.04,158.69z"/>
			</g>
		</g>
	</g>
	<g>
		<g>
			<path class="st3" d="M271.41,135.36c3.5,0,6.45-0.73,8.87-2.19c2.41-1.46,4.37-3.39,5.87-5.81c1.5-2.42,2.56-5.18,3.19-8.31
				c0.62-3.12,0.94-6.31,0.94-9.56V64.16h20.49v45.35c0,6.16-0.77,11.91-2.31,17.24c-1.54,5.33-3.92,9.99-7.12,13.99
				c-3.21,4-7.29,7.14-12.24,9.43c-4.96,2.29-10.85,3.44-17.68,3.44c-7.08,0-13.12-1.21-18.11-3.62c-5-2.42-9.06-5.64-12.18-9.68
				c-3.12-4.04-5.41-8.72-6.87-14.05c-1.46-5.33-2.19-10.91-2.19-16.74V64.16h20.49v45.35c0,3.42,0.33,6.66,1,9.74
				c0.67,3.08,1.75,5.83,3.25,8.25c1.5,2.42,3.44,4.33,5.81,5.75C264.98,134.66,267.92,135.36,271.41,135.36z"/>
			<path class="st3" d="M320.26,131.99c0.83,0.67,2.6,1.5,5.31,2.5c2.71,1,5.85,1.5,9.43,1.5c3.08,0,5.54-0.52,7.37-1.56
				c1.83-1.04,3.25-2.64,4.25-4.81c1-2.16,1.64-4.93,1.94-8.31c0.29-3.37,0.44-7.39,0.44-12.06v-45.1h20.49v45.1
				c0,6.75-0.36,12.89-1.06,18.43c-0.71,5.54-2.25,10.27-4.62,14.18c-2.37,3.92-5.85,6.96-10.43,9.12
				c-4.58,2.17-10.7,3.25-18.36,3.25c-7.5,0-13.91-1.83-19.24-5.5L320.26,131.99z"/>
			<path class="st3" d="M423.57,135.36c3.5,0,6.45-0.73,8.87-2.19c2.41-1.46,4.37-3.39,5.87-5.81c1.5-2.42,2.56-5.18,3.19-8.31
				c0.62-3.12,0.94-6.31,0.94-9.56V64.16h20.49v45.35c0,6.16-0.77,11.91-2.31,17.24c-1.54,5.33-3.92,9.99-7.12,13.99
				c-3.21,4-7.29,7.14-12.24,9.43c-4.96,2.29-10.85,3.44-17.68,3.44c-7.08,0-13.12-1.21-18.11-3.62c-5-2.42-9.06-5.64-12.18-9.68
				c-3.12-4.04-5.41-8.72-6.87-14.05c-1.46-5.33-2.19-10.91-2.19-16.74V64.16h20.49v45.35c0,3.42,0.33,6.66,1,9.74
				c0.67,3.08,1.75,5.83,3.25,8.25c1.5,2.42,3.44,4.33,5.81,5.75C417.13,134.66,420.07,135.36,423.57,135.36z"/>
			<path class="st3" d="M528.37,102.14v50.72h-20.49V64.16h15.99l41.35,52.09V64.16h20.49v88.69h-16.49L528.37,102.14z"/>
			<path class="st3" d="M619.06,154.1c-3.25,0-6.27-0.52-9.06-1.56c-2.79-1.04-5.18-2.5-7.18-4.37s-3.58-4.08-4.75-6.62
				c-1.17-2.54-1.75-5.31-1.75-8.31c0-3.25,0.69-6.2,2.06-8.87c1.37-2.67,3.31-4.95,5.81-6.87c2.5-1.92,5.45-3.41,8.87-4.5
				c3.41-1.08,7.2-1.62,11.37-1.62c2.75,0,5.41,0.23,8,0.69c2.58,0.46,4.83,1.15,6.75,2.06v-3c0-7.58-4.37-11.37-13.12-11.37
				c-3.58,0-7,0.6-10.24,1.81c-3.25,1.21-6.66,3.02-10.24,5.43l-5.87-12.49c4.33-2.83,8.83-4.95,13.49-6.37
				c4.66-1.42,9.62-2.12,14.87-2.12c9.91,0,17.57,2.33,22.99,7c5.41,4.67,8.12,11.49,8.12,20.49v16.86c0,2,0.31,3.39,0.94,4.18
				c0.62,0.79,1.73,1.27,3.31,1.44v16.86c-1.75,0.42-3.33,0.69-4.75,0.81c-1.42,0.13-2.71,0.19-3.87,0.19
				c-3.75,0-6.58-0.73-8.49-2.19c-1.92-1.46-3.12-3.52-3.62-6.18l-0.38-3c-2.92,3.75-6.39,6.62-10.43,8.62
				C627.83,153.1,623.56,154.1,619.06,154.1z M624.93,139.74c2.16,0,4.27-0.38,6.31-1.13c2.04-0.75,3.73-1.75,5.06-3
				c1.92-1.5,2.87-3.08,2.87-4.75v-6.25c-1.75-0.67-3.64-1.19-5.68-1.56c-2.04-0.37-3.93-0.56-5.68-0.56c-3.67,0-6.68,0.83-9.06,2.5
				c-2.37,1.67-3.56,3.83-3.56,6.5c0,2.42,0.92,4.39,2.75,5.93C619.77,138.97,622.1,139.74,624.93,139.74z"/>
			<path class="st3" d="M777.34,152.85h-19.99V116c0-4.33-0.79-7.47-2.37-9.43c-1.58-1.96-3.62-2.94-6.12-2.94
				c-1.33,0-2.69,0.29-4.06,0.88c-1.37,0.58-2.64,1.4-3.81,2.44c-1.17,1.04-2.23,2.27-3.19,3.69c-0.96,1.42-1.73,2.96-2.31,4.62
				v37.6H715.5V116c0-4.33-0.79-7.47-2.37-9.43c-1.58-1.96-3.62-2.94-6.12-2.94c-2.67,0-5.27,1.06-7.81,3.19
				c-2.54,2.12-4.39,4.93-5.56,8.43v37.6h-19.99V87.27h17.99v10.99c2.41-4,5.68-7.04,9.81-9.12c4.12-2.08,8.93-3.12,14.43-3.12
				c2.75,0,5.14,0.33,7.18,1c2.04,0.67,3.81,1.58,5.31,2.75c1.5,1.17,2.71,2.52,3.62,4.06c0.92,1.54,1.58,3.18,2,4.93
				c2.5-4.08,5.79-7.22,9.87-9.43c4.08-2.21,8.74-3.31,13.99-3.31c4.16,0,7.51,0.77,10.06,2.31c2.54,1.54,4.52,3.54,5.93,6
				c1.42,2.46,2.35,5.14,2.81,8.06c0.46,2.92,0.69,5.75,0.69,8.49V152.85z"/>
			<path class="st3" d="M790.45,79.78V61.66h19.99v18.11H790.45z M790.45,152.85V87.27h19.99v65.58H790.45z"/>
			<path class="st3" d="M865.78,104.39c-4.83,0.08-9.2,0.87-13.12,2.37c-3.92,1.5-6.75,3.75-8.5,6.75v39.35h-19.99V87.27h18.36
				v13.24c2.25-4.41,5.14-7.87,8.68-10.37c3.54-2.5,7.31-3.79,11.3-3.87c0.92,0,1.58,0,2,0c0.42,0,0.83,0.04,1.25,0.13V104.39z"/>
			<path class="st3" d="M937.36,152.85h-19.99V116c0-4.33-0.81-7.47-2.44-9.43c-1.62-1.96-3.77-2.94-6.43-2.94
				c-1.42,0-2.83,0.29-4.25,0.88c-1.42,0.58-2.79,1.4-4.12,2.44c-1.33,1.04-2.52,2.27-3.56,3.69c-1.04,1.42-1.85,2.96-2.44,4.62
				v37.6h-19.99V87.27h17.99v10.99c2.41-3.91,5.83-6.93,10.24-9.06c4.41-2.12,9.49-3.19,15.24-3.19c4.25,0,7.66,0.77,10.24,2.31
				c2.58,1.54,4.58,3.54,6,6c1.42,2.46,2.35,5.14,2.81,8.06c0.46,2.92,0.69,5.75,0.69,8.49V152.85z"/>
			<path class="st3" d="M950.6,79.78V61.66h19.99v18.11H950.6z M950.6,152.85V87.27h19.99v65.58H950.6z"/>
			<path class="st3" d="M980.45,120c0-4.5,0.79-8.81,2.37-12.93c1.58-4.12,3.87-7.75,6.87-10.87s6.68-5.6,11.06-7.43
				c4.37-1.83,9.35-2.75,14.93-2.75c7.58,0,13.95,1.6,19.11,4.81c5.16,3.21,9.04,7.39,11.62,12.55l-19.49,5.87
				c-2.58-4.16-6.37-6.25-11.37-6.25c-4.17,0-7.64,1.54-10.43,4.62c-2.79,3.08-4.18,7.2-4.18,12.37c0,2.58,0.37,4.93,1.12,7.06
				c0.75,2.12,1.79,3.93,3.12,5.43c1.33,1.5,2.89,2.67,4.68,3.5c1.79,0.83,3.68,1.25,5.68,1.25c2.5,0,4.79-0.6,6.87-1.81
				c2.08-1.21,3.62-2.77,4.62-4.68l19.49,6c-2.42,5.08-6.27,9.24-11.56,12.49c-5.29,3.25-11.72,4.87-19.3,4.87
				c-5.5,0-10.43-0.94-14.8-2.81s-8.08-4.37-11.12-7.5c-3.04-3.12-5.35-6.75-6.93-10.87C981.24,128.81,980.45,124.5,980.45,120z"/>
			<path class="st3" d="M1086.26,154.1c-5.5,0-10.43-0.9-14.8-2.69s-8.08-4.23-11.12-7.31c-3.04-3.08-5.35-6.64-6.93-10.68
				c-1.58-4.04-2.37-8.26-2.37-12.68c0-4.75,0.79-9.22,2.37-13.43c1.58-4.21,3.87-7.89,6.87-11.06c3-3.16,6.68-5.66,11.06-7.5
				c4.37-1.83,9.35-2.75,14.93-2.75c5.58,0,10.53,0.92,14.87,2.75c4.33,1.83,8,4.31,10.99,7.43s5.27,6.73,6.81,10.81
				c1.54,4.08,2.31,8.37,2.31,12.87c0,1.17-0.04,2.31-0.13,3.43c-0.08,1.13-0.21,2.1-0.37,2.94h-48.47
				c0.33,4.42,1.94,7.77,4.81,10.06c2.87,2.29,6.14,3.44,9.81,3.44c2.91,0,5.72-0.71,8.43-2.12c2.71-1.42,4.52-3.33,5.43-5.75
				l16.99,4.75c-2.58,5.16-6.58,9.37-11.99,12.62C1100.33,152.48,1093.84,154.1,1086.26,154.1z M1100.13,113.88
				c-0.42-4.16-1.92-7.45-4.5-9.87c-2.58-2.42-5.79-3.62-9.62-3.62c-3.92,0-7.14,1.23-9.68,3.69c-2.54,2.46-4.02,5.73-4.44,9.81
				H1100.13z"/>
		</g>
	</g>
</g>
</svg>
