<?xml version="1.0" encoding="utf-8"?>
<!-- Generator: Adobe Illustrator 23.0.1, SVG Export Plug-In . SVG Version: 6.00 Build 0)  -->
<svg version="1.1" id="Layer_1" xmlns="http://www.w3.org/2000/svg" xmlns:xlink="http://www.w3.org/1999/xlink" x="0px" y="0px"
	 viewBox="0 0 100 100" style="enable-background:new 0 0 100 100;" xml:space="preserve">
<style type="text/css">
	.st0{fill:#4B9F48;}
	.st1{fill:#FFFFFF;}
</style>
<circle class="st0" cx="50" cy="50" r="50"/>
<g>
	<path class="st1" d="M51.39,37.28c1.01,0,2.37,0.75,4.09,2.24c1.71,1.49,2.57,2.72,2.57,3.69c0,2.34-1.43,7.96-4.3,16.86
		c-2.87,8.9-5.03,13.35-6.48,13.35c-0.77,0-1.63-0.58-2.57-1.73c-0.95-1.15-1.42-2.13-1.42-2.94s0.1-1.67,0.3-2.57
		c0.2-0.91,0.41-1.76,0.64-2.54c0.22-0.79,0.56-1.91,1.03-3.36c0.46-1.45,0.84-2.62,1.12-3.51c-2.91,1.01-5.76,1.51-8.57,1.51
		s-4.99-0.77-6.54-2.3c-1.55-1.53-2.33-3.59-2.33-6.18c0-1.86,1-4.68,3-8.48c2-3.79,4.21-7.21,6.63-10.23s4.15-4.54,5.18-4.54
		s2.1,0.51,3.21,1.51c1.11,1.01,1.67,1.95,1.67,2.82c0,0.87-1.89,3.99-5.66,9.36c-3.78,5.37-5.66,8.54-5.66,9.51
		c0,0.4,0.08,0.67,0.24,0.79c0.16,0.12,0.52,0.18,1.09,0.18c1.37,0,3.35-0.54,5.93-1.63c2.58-1.09,3.98-1.66,4.18-1.7
		c0.52-2.87,0.79-5.63,0.79-8.3C49.52,37.89,50.14,37.28,51.39,37.28z"/>
	<path class="st1" d="M67.8,72.65c-1.29,0-2.74-0.79-4.33-2.36s-2.39-2.94-2.39-4.09c0-1.15,0.5-2.3,1.51-3.45s2.03-1.73,3.06-1.73
		s2.19,1.13,3.48,3.39c1.29,2.26,1.94,3.98,1.94,5.15c0,0.61-0.37,1.27-1.12,2C69.2,72.28,68.49,72.65,67.8,72.65z"/>
</g>
</svg>
