<?xml version="1.0" encoding="utf-8"?>
<!-- Generator: Adobe Illustrator 23.0.1, SVG Export Plug-In . SVG Version: 6.00 Build 0)  -->
<svg version="1.1" id="Layer_1" xmlns="http://www.w3.org/2000/svg" xmlns:xlink="http://www.w3.org/1999/xlink" x="0px" y="0px"
	 viewBox="0 0 100 100" style="enable-background:new 0 0 100 100;" xml:space="preserve">
<style type="text/css">
	.st0{fill:#D9D872;}
	.st1{fill:#FFFFFF;}
</style>
<circle class="st0" cx="50" cy="50" r="50"/>
<g>
	<path class="st1" d="M37.53,50.91v-0.24c0-0.48,0.22-0.89,0.67-1.21c0.52-0.65,1.55-1.53,3.09-2.66c1.53-1.13,2.98-2.19,4.33-3.18
		c1.35-0.99,2.57-2.17,3.66-3.54c1.09-1.37,1.63-2.7,1.63-4c0-0.48-0.18-0.73-0.54-0.73c-1.33,0-3.23,0.66-5.69,1.97
		c-2.46,1.31-4.04,1.97-4.72,1.97c-0.69,0-1.78-0.72-3.27-2.15c-1.49-1.43-2.24-2.49-2.24-3.18c0-1.13,0.95-2.23,2.85-3.3
		c1.9-1.07,4.07-1.9,6.51-2.48c2.44-0.58,4.59-0.88,6.45-0.88c2.66,0,4.97,0.97,6.93,2.91c1.96,1.94,2.94,3.98,2.94,6.12
		c0,2.14-0.9,4.35-2.69,6.63c-1.8,2.28-4.03,4.33-6.69,6.15c5.65,1.25,8.48,3.81,8.48,7.69c0,2.46-1.42,4.88-4.27,7.24
		c-2.85,2.36-6.29,4.23-10.33,5.6c-4.04,1.37-7.85,2.06-11.44,2.06c-4.36,0-6.54-0.95-6.54-2.85c0-1.05,3.63-2.64,10.9-4.78
		c2.7-0.77,5.2-1.82,7.48-3.15c2.28-1.33,3.42-2.7,3.42-4.12c0-0.77-0.4-1.36-1.21-1.79c-0.81-0.42-1.72-0.7-2.73-0.82
		c-3.07-0.36-5.07-0.91-5.99-1.63C37.85,52.14,37.53,51.6,37.53,50.91z"/>
	<path class="st1" d="M70.1,72.71c-1.29,0-2.74-0.79-4.33-2.36s-2.39-2.94-2.39-4.09c0-1.15,0.5-2.3,1.51-3.45s2.03-1.73,3.06-1.73
		s2.19,1.13,3.48,3.39c1.29,2.26,1.94,3.98,1.94,5.15c0,0.61-0.37,1.27-1.12,2C71.51,72.34,70.79,72.71,70.1,72.71z"/>
</g>
</svg>
