<?xml version="1.0" encoding="utf-8"?>
<!-- Generator: Adobe Illustrator 23.0.1, SVG Export Plug-In . SVG Version: 6.00 Build 0)  -->
<svg version="1.1" id="Layer_1" xmlns="http://www.w3.org/2000/svg" xmlns:xlink="http://www.w3.org/1999/xlink" x="0px" y="0px"
	 viewBox="0 0 100 100" style="enable-background:new 0 0 100 100;" xml:space="preserve">
<style type="text/css">
	.st0{fill:#D9D872;}
	.st1{fill:#FFFFFF;}
</style>
<circle class="st0" cx="50" cy="50" r="50"/>
<g>
	<path class="st1" d="M54.09,48.76c2.74,1.78,4.12,3.81,4.12,6.09c0,2.28-1.02,4.71-3.06,7.3c-2.04,2.58-4.68,4.75-7.93,6.51
		c-3.25,1.76-6.38,2.63-9.39,2.63c-3.01,0-5.4-0.94-7.17-2.82c-1.78-1.88-2.67-4.16-2.67-6.84c0-2.68,0.94-6.04,2.82-10.08
		c1.88-4.04,4.05-7.8,6.51-11.29c2.46-3.49,4.92-6.51,7.39-9.05c2.46-2.54,4.3-3.81,5.51-3.81s2.46,0.33,3.75,1
		c1.29,0.67,1.94,1.4,1.94,2.21c0,0.48-0.51,1.4-1.51,2.75c-1.01,1.35-2.58,3.3-4.72,5.84c-2.14,2.54-3.83,4.62-5.09,6.24
		C48.17,45.87,51.34,46.98,54.09,48.76z M38.59,63.47c2.54,0,4.82-0.86,6.84-2.57s3.03-3.52,3.03-5.42c0-1.01-0.69-1.96-2.06-2.85
		c-1.37-0.89-3.25-1.53-5.63-1.94c-2.83,4.28-4.24,7.67-4.24,10.17C36.53,62.61,37.21,63.47,38.59,63.47z"/>
	<path class="st1" d="M68.74,72.62c-1.29,0-2.74-0.79-4.33-2.36s-2.39-2.94-2.39-4.09c0-1.15,0.5-2.3,1.51-3.45s2.03-1.73,3.06-1.73
		c1.03,0,2.19,1.13,3.48,3.39c1.29,2.26,1.94,3.98,1.94,5.15c0,0.61-0.37,1.27-1.12,2C70.14,72.25,69.43,72.62,68.74,72.62z"/>
</g>
</svg>
