<?xml version="1.0" encoding="utf-8"?>
<!-- Generator: Adobe Illustrator 23.0.1, SVG Export Plug-In . SVG Version: 6.00 Build 0)  -->
<svg version="1.1" id="Layer_1" xmlns="http://www.w3.org/2000/svg" xmlns:xlink="http://www.w3.org/1999/xlink" x="0px" y="0px"
	 viewBox="0 0 100 100" style="enable-background:new 0 0 100 100;" xml:space="preserve">
<style type="text/css">
	.st0{fill:#ED674A;}
	.st1{fill:#FFFFFF;}
</style>
<circle class="st0" cx="50" cy="50" r="50"/>
<g>
	<path class="st1" d="M37.07,63.38c7.23-1.33,12.71-2,16.44-2c3.73,0,5.6,0.81,5.6,2.42c0,1.54-3.2,3.19-9.6,4.97
		s-11.31,2.66-14.74,2.66c-1.41,0-3.13-0.91-5.15-2.72c-2.02-1.82-3.03-3.43-3.03-4.84c0-0.93,2.58-3.51,7.75-7.75
		c2.14-1.78,4.28-3.64,6.42-5.6c2.14-1.96,3.97-3.97,5.48-6.02c1.51-2.06,2.27-3.91,2.27-5.54c0-1.64-0.77-2.45-2.3-2.45
		c-1.17,0-2.21,0.43-3.12,1.3c-0.91,0.87-1.62,1.74-2.12,2.6c-0.51,0.87-0.88,1.3-1.12,1.3c-1.05,0-2.37-0.58-3.97-1.73
		s-2.39-2.15-2.39-3c0-2.3,1.22-4.49,3.66-6.57c2.44-2.08,5.39-3.12,8.84-3.12s6.17,1.06,8.14,3.18c1.98,2.12,2.97,4.81,2.97,8.08
		c0,4.4-1.89,8.82-5.66,13.26C47.68,56.26,42.88,60.11,37.07,63.38z"/>
	<path class="st1" d="M70.13,72.71c-1.29,0-2.74-0.79-4.33-2.36s-2.39-2.94-2.39-4.09c0-1.15,0.5-2.3,1.51-3.45s2.03-1.73,3.06-1.73
		s2.19,1.13,3.48,3.39c1.29,2.26,1.94,3.98,1.94,5.15c0,0.61-0.37,1.27-1.12,2C71.54,72.34,70.82,72.71,70.13,72.71z"/>
</g>
</svg>
