<?xml version="1.0" encoding="utf-8"?>
<!-- Generator: Adobe Illustrator 23.0.1, SVG Export Plug-In . SVG Version: 6.00 Build 0)  -->
<svg version="1.1" id="Layer_1" xmlns="http://www.w3.org/2000/svg" xmlns:xlink="http://www.w3.org/1999/xlink" x="0px" y="0px"
	 viewBox="0 0 100 100" style="enable-background:new 0 0 100 100;" xml:space="preserve">
<style type="text/css">
	.st0{fill:#4B9F48;}
	.st1{fill:#FFFFFF;}
</style>
<circle class="st0" cx="50" cy="50" r="50"/>
<g>
	<path class="st1" d="M51.45,33.35c0,2.54-0.36,5.4-1.09,8.57c-0.73,3.17-1.41,5.99-2.06,8.45c-0.65,2.46-1.22,4.84-1.73,7.15
		c-0.51,2.3-0.93,4.17-1.27,5.6c-0.34,1.43-0.74,2.9-1.18,4.39c-0.89,2.87-1.86,4.3-2.91,4.3c-0.93,0-1.99-0.59-3.18-1.79
		c-1.19-1.19-1.79-2.27-1.79-3.24c0-0.97,0.44-3.19,1.33-6.66c0.89-3.47,1.79-8.02,2.69-13.65s1.36-11.49,1.36-17.59
		c0-1.17,0.59-1.76,1.79-1.76c1.19,0,2.83,0.85,4.9,2.54C50.41,31.35,51.45,32.58,51.45,33.35z"/>
	<path class="st1" d="M60.48,72.89c-1.29,0-2.74-0.79-4.33-2.36s-2.39-2.94-2.39-4.09c0-1.15,0.5-2.3,1.51-3.45
		c1.01-1.15,2.03-1.73,3.06-1.73s2.19,1.13,3.48,3.39c1.29,2.26,1.94,3.98,1.94,5.15c0,0.61-0.37,1.27-1.12,2
		C61.88,72.53,61.16,72.89,60.48,72.89z"/>
</g>
</svg>
