<?xml version="1.0" encoding="utf-8"?>
<!-- Generator: Adobe Illustrator 23.0.1, SVG Export Plug-In . SVG Version: 6.00 Build 0)  -->
<svg version="1.1" id="Layer_1" xmlns="http://www.w3.org/2000/svg" xmlns:xlink="http://www.w3.org/1999/xlink" x="0px" y="0px"
	 viewBox="0 0 100 100" style="enable-background:new 0 0 100 100;" xml:space="preserve">
<style type="text/css">
	.st0{fill:#ED674A;}
	.st1{fill:#FFFFFF;}
</style>
<circle class="st0" cx="50" cy="50" r="50"/>
<g>
	<path class="st1" d="M57.5,24.05c7.39,0,11.08,0.89,11.08,2.66c0,0.77-0.63,1.43-1.88,2c-1.49,0.73-3.3,1.33-5.42,1.82
		c-2.12,0.48-3.82,0.87-5.09,1.15c-1.27,0.28-2.27,0.51-3,0.7s-1.44,1.02-2.15,2.51C50.35,36.39,50,37.56,50,38.4
		s0.39,1.74,1.18,2.66c0.79,0.93,1.75,1.84,2.88,2.72c1.13,0.89,2.26,1.82,3.39,2.79c2.7,2.3,4.06,4.64,4.06,7.02
		c0,3.67-1.81,7.03-5.42,10.08c-3.61,3.05-7.16,4.57-10.63,4.57c-3.47,0-6.43-0.94-8.87-2.82c-2.44-1.88-3.66-4.01-3.66-6.39
		c0-0.77,0.14-1.43,0.42-2c0.28-0.57,0.67-0.85,1.15-0.85s1.11,0.36,1.88,1.09c2.38,2.26,4.5,3.39,6.36,3.39
		c1.86,0,3.87-0.77,6.03-2.3c2.16-1.53,3.24-3.07,3.24-4.6c0-1.37-1.35-2.97-4.06-4.78c-1.13-0.77-2.25-1.59-3.36-2.48
		c-1.11-0.89-2.06-2.02-2.85-3.39c-0.79-1.37-1.18-3.03-1.18-4.97s0.97-4.63,2.91-8.08c1.94-3.45,3.71-5.32,5.33-5.6
		C50.4,24.19,53.31,24.05,57.5,24.05z"/>
	<path class="st1" d="M73.07,69.1c-1.29,0-2.74-0.79-4.33-2.36s-2.39-2.94-2.39-4.09c0-1.15,0.5-2.3,1.51-3.45s2.03-1.73,3.06-1.73
		s2.19,1.13,3.48,3.39c1.29,2.26,1.94,3.98,1.94,5.15c0,0.61-0.37,1.27-1.12,2C74.47,68.74,73.75,69.1,73.07,69.1z"/>
</g>
</svg>
